<svg width="10" height="10" viewBox="0 0 10 10" fill="none" xmlns="http://www.w3.org/2000/svg">
<path d="M9.07701 3.06696C9.01081 3.00029 8.93203 2.94741 8.84524 2.91139C8.75846 2.87538 8.66539 2.85694 8.57143 2.85714H7.14286V2.5C7.14286 1.83696 6.87947 1.20107 6.41062 0.732233C5.94178 0.263392 5.3059 0 4.64286 0C3.97982 0 3.34393 0.263392 2.87509 0.732233C2.40625 1.20107 2.14286 1.83696 2.14286 2.5V2.85714H0.714286C0.524845 2.85714 0.343164 2.9324 0.209209 3.06635C0.0752549 3.20031 0 3.38199 0 3.57143V8.39286C0 9.26339 0.736607 10 1.60714 10H7.67857C8.09966 10.0001 8.50409 9.83549 8.80536 9.5413C8.95697 9.39666 9.0777 9.2228 9.16026 9.03021C9.24282 8.83762 9.2855 8.6303 9.28571 8.42076V3.57143C9.28601 3.47772 9.26771 3.38488 9.23189 3.29829C9.19606 3.2117 9.14342 3.13308 9.07701 3.06696ZM2.85714 2.5C2.85714 2.0264 3.04528 1.5722 3.38017 1.23731C3.71505 0.902423 4.16926 0.714286 4.64286 0.714286C5.11646 0.714286 5.57066 0.902423 5.90555 1.23731C6.24043 1.5722 6.42857 2.0264 6.42857 2.5V2.85714H2.85714V2.5Z" fill="#6F7512"/>
</svg>
