<svg width="10" height="10" viewBox="0 0 10 10" fill="none" xmlns="http://www.w3.org/2000/svg">
<path d="M10 2.14283C10 1.76395 9.84952 1.40059 9.58161 1.13268C9.3137 0.864766 8.95034 0.714255 8.57146 0.714255H8.21431V0.367156C8.21431 0.174968 8.06654 0.0100121 7.87436 0.000413836C7.82607 -0.00191278 7.77781 0.00558888 7.7325 0.0224643C7.6872 0.0393397 7.64579 0.0652376 7.61079 0.0985885C7.57579 0.131939 7.54793 0.172049 7.52889 0.216487C7.50985 0.260925 7.50003 0.308766 7.50003 0.357111V0.714255H2.50001V0.367156C2.50001 0.174968 2.35224 0.0100121 2.16005 0.000413836C2.11176 -0.00191278 2.0635 0.00558888 2.0182 0.0224643C1.9729 0.0393397 1.93149 0.0652376 1.89649 0.0985885C1.86149 0.131939 1.83362 0.172049 1.81458 0.216487C1.79554 0.260925 1.78572 0.308766 1.78572 0.357111V0.714255H1.42858C1.04969 0.714255 0.68633 0.864766 0.41842 1.13268C0.15051 1.40059 0 1.76395 0 2.14283V2.41069C0 2.43437 0.00940691 2.45708 0.0261513 2.47382C0.0428957 2.49057 0.0656059 2.49998 0.089286 2.49998H9.91075C9.93443 2.49998 9.95714 2.49057 9.97388 2.47382C9.99063 2.45708 10 2.43437 10 2.41069V2.14283ZM0 8.57142C0 8.95031 0.15051 9.31367 0.41842 9.58158C0.68633 9.84949 1.04969 10 1.42858 10H8.57146C8.95034 10 9.3137 9.84949 9.58161 9.58158C9.84952 9.31367 10 8.95031 10 8.57142V3.28123C10 3.26347 9.99298 3.24644 9.98042 3.23388C9.96786 3.22132 9.95083 3.21426 9.93307 3.21426H0.0669645C0.0492044 3.21426 0.0321718 3.22132 0.0196135 3.23388C0.0070552 3.24644 0 3.26347 0 3.28123V8.57142ZM7.6786 3.92855C7.78455 3.92855 7.88813 3.95997 7.97622 4.01884C8.06432 4.0777 8.13299 4.16137 8.17353 4.25926C8.21408 4.35715 8.22469 4.46486 8.20402 4.56878C8.18335 4.6727 8.13233 4.76816 8.05741 4.84308C7.98248 4.918 7.88703 4.96902 7.78311 4.98969C7.67919 5.01036 7.57148 4.99975 7.47359 4.9592C7.3757 4.91866 7.29203 4.84999 7.23317 4.7619C7.1743 4.6738 7.14288 4.57022 7.14288 4.46427C7.14288 4.32219 7.19932 4.18593 7.29979 4.08546C7.40026 3.98499 7.53652 3.92855 7.6786 3.92855ZM7.6786 5.71427C7.78455 5.71427 7.88813 5.74569 7.97622 5.80456C8.06432 5.86342 8.13299 5.94709 8.17353 6.04498C8.21408 6.14287 8.22469 6.25058 8.20402 6.3545C8.18335 6.45842 8.13233 6.55387 8.05741 6.6288C7.98248 6.70372 7.88703 6.75474 7.78311 6.77541C7.67919 6.79608 7.57148 6.78547 7.47359 6.74492C7.3757 6.70438 7.29203 6.63571 7.23317 6.54762C7.1743 6.45952 7.14288 6.35594 7.14288 6.24999C7.14288 6.10791 7.19932 5.97165 7.29979 5.87118C7.40026 5.77071 7.53652 5.71427 7.6786 5.71427ZM5.89288 3.92855C5.99883 3.92855 6.10241 3.95997 6.1905 4.01884C6.2786 4.0777 6.34727 4.16137 6.38781 4.25926C6.42836 4.35715 6.43897 4.46486 6.4183 4.56878C6.39763 4.6727 6.34661 4.76816 6.27169 4.84308C6.19676 4.918 6.10131 4.96902 5.99739 4.98969C5.89347 5.01036 5.78576 4.99975 5.68787 4.9592C5.58998 4.91866 5.50631 4.84999 5.44745 4.7619C5.38858 4.6738 5.35716 4.57022 5.35716 4.46427C5.35716 4.32219 5.4136 4.18593 5.51407 4.08546C5.61453 3.98499 5.7508 3.92855 5.89288 3.92855ZM5.89288 5.71427C5.99883 5.71427 6.10241 5.74569 6.1905 5.80456C6.2786 5.86342 6.34727 5.94709 6.38781 6.04498C6.42836 6.14287 6.43897 6.25058 6.4183 6.3545C6.39763 6.45842 6.34661 6.55387 6.27169 6.6288C6.19676 6.70372 6.10131 6.75474 5.99739 6.77541C5.89347 6.79608 5.78576 6.78547 5.68787 6.74492C5.58998 6.70438 5.50631 6.63571 5.44745 6.54762C5.38858 6.45952 5.35716 6.35594 5.35716 6.24999C5.35716 6.10791 5.4136 5.97165 5.51407 5.87118C5.61453 5.77071 5.7508 5.71427 5.89288 5.71427ZM5.89288 7.49999C5.99883 7.49999 6.10241 7.53141 6.1905 7.59028C6.2786 7.64914 6.34727 7.73281 6.38781 7.8307C6.42836 7.92859 6.43897 8.0363 6.4183 8.14022C6.39763 8.24414 6.34661 8.33959 6.27169 8.41452C6.19676 8.48944 6.10131 8.54046 5.99739 8.56113C5.89347 8.5818 5.78576 8.57119 5.68787 8.53064C5.58998 8.4901 5.50631 8.42143 5.44745 8.33334C5.38858 8.24524 5.35716 8.14166 5.35716 8.03571C5.35716 7.89363 5.4136 7.75737 5.51407 7.6569C5.61453 7.55643 5.7508 7.49999 5.89288 7.49999ZM4.10716 5.71427C4.21311 5.71427 4.31669 5.74569 4.40478 5.80456C4.49288 5.86342 4.56155 5.94709 4.60209 6.04498C4.64264 6.14287 4.65325 6.25058 4.63258 6.3545C4.61191 6.45842 4.56089 6.55387 4.48597 6.6288C4.41104 6.70372 4.31559 6.75474 4.21167 6.77541C4.10775 6.79608 4.00004 6.78547 3.90215 6.74492C3.80426 6.70438 3.72059 6.63571 3.66172 6.54762C3.60286 6.45952 3.57144 6.35594 3.57144 6.24999C3.57144 6.10791 3.62788 5.97165 3.72835 5.87118C3.82881 5.77071 3.96508 5.71427 4.10716 5.71427ZM4.10716 7.49999C4.21311 7.49999 4.31669 7.53141 4.40478 7.59028C4.49288 7.64914 4.56155 7.73281 4.60209 7.8307C4.64264 7.92859 4.65325 8.0363 4.63258 8.14022C4.61191 8.24414 4.56089 8.33959 4.48597 8.41452C4.41104 8.48944 4.31559 8.54046 4.21167 8.56113C4.10775 8.5818 4.00004 8.57119 3.90215 8.53064C3.80426 8.4901 3.72059 8.42143 3.66172 8.33334C3.60286 8.24524 3.57144 8.14166 3.57144 8.03571C3.57144 7.89363 3.62788 7.75737 3.72835 7.6569C3.82881 7.55643 3.96508 7.49999 4.10716 7.49999ZM2.32144 5.71427C2.42739 5.71427 2.53097 5.74569 2.61906 5.80456C2.70716 5.86342 2.77583 5.94709 2.81637 6.04498C2.85692 6.14287 2.86753 6.25058 2.84686 6.3545C2.82619 6.45842 2.77517 6.55387 2.70024 6.6288C2.62532 6.70372 2.52987 6.75474 2.42595 6.77541C2.32203 6.79608 2.21432 6.78547 2.11643 6.74492C2.01854 6.70438 1.93487 6.63571 1.876 6.54762C1.81714 6.45952 1.78572 6.35594 1.78572 6.24999C1.78572 6.10791 1.84216 5.97165 1.94263 5.87118C2.04309 5.77071 2.17936 5.71427 2.32144 5.71427ZM2.32144 7.49999C2.42739 7.49999 2.53097 7.53141 2.61906 7.59028C2.70716 7.64914 2.77583 7.73281 2.81637 7.8307C2.85692 7.92859 2.86753 8.0363 2.84686 8.14022C2.82619 8.24414 2.77517 8.33959 2.70024 8.41452C2.62532 8.48944 2.52987 8.54046 2.42595 8.56113C2.32203 8.5818 2.21432 8.57119 2.11643 8.53064C2.01854 8.4901 1.93487 8.42143 1.876 8.33334C1.81714 8.24524 1.78572 8.14166 1.78572 8.03571C1.78572 7.89363 1.84216 7.75737 1.94263 7.6569C2.04309 7.55643 2.17936 7.49999 2.32144 7.49999Z" fill="#596235"/>
</svg>
