<svg width="10" height="6" viewBox="0 0 10 6" fill="none" xmlns="http://www.w3.org/2000/svg">
<path d="M0.321533 5.40862H9.67846C9.48374 4.42939 8.9871 3.53578 8.25833 2.85337C7.52955 2.17095 6.60528 1.73403 5.61538 1.604V1.2117C5.66188 1.18485 5.70055 1.1463 5.72754 1.09988C5.75453 1.05345 5.7689 1.00078 5.76923 0.947081C5.76923 0.865476 5.73681 0.787214 5.67911 0.72951C5.6214 0.671807 5.54314 0.639389 5.46153 0.639389H4.53846C4.45685 0.639389 4.37859 0.671807 4.32089 0.72951C4.26318 0.787214 4.23076 0.865476 4.23076 0.947081C4.23109 1.00078 4.24546 1.05345 4.27245 1.09988C4.29944 1.1463 4.33811 1.18485 4.38461 1.2117V1.604C3.39471 1.73403 2.47044 2.17095 1.74166 2.85337C1.01289 3.53578 0.516247 4.42939 0.321533 5.40862ZM4.52923 3.124C4.54875 3.20316 4.53606 3.28682 4.49394 3.35663C4.45183 3.42643 4.38373 3.47667 4.30461 3.49631C3.6148 3.66494 3.00996 4.07893 2.60307 4.66093C2.55477 4.72324 2.4844 4.76463 2.40647 4.77656C2.32854 4.7885 2.249 4.77006 2.18427 4.72506C2.11953 4.68007 2.07454 4.61194 2.05857 4.53473C2.04261 4.45753 2.05688 4.37714 2.09846 4.31016C2.59025 3.60494 3.32197 3.10291 4.15692 2.89785C4.19622 2.88821 4.23703 2.88641 4.27702 2.89256C4.31701 2.89872 4.3554 2.9127 4.38998 2.9337C4.42456 2.95471 4.45466 2.98233 4.47856 3.01498C4.50245 3.04764 4.51967 3.08469 4.52923 3.124Z" fill="#DA6846"/>
</svg>
