<svg width="9" height="12" viewBox="0 0 9 12" fill="none" xmlns="http://www.w3.org/2000/svg">
<path d="M4.28571 0C1.91973 0 0 1.72795 0 3.85714C0 7.28571 4.28571 12 4.28571 12C4.28571 12 8.57143 7.28571 8.57143 3.85714C8.57143 1.72795 6.6517 0 4.28571 0ZM4.28571 6C3.94666 6 3.61522 5.89946 3.33331 5.71109C3.0514 5.52272 2.83167 5.25499 2.70192 4.94174C2.57217 4.6285 2.53822 4.28381 2.60437 3.95127C2.67051 3.61873 2.83378 3.31328 3.07353 3.07353C3.31328 2.83378 3.61873 2.67051 3.95127 2.60437C4.28381 2.53822 4.6285 2.57217 4.94174 2.70192C5.25499 2.83167 5.52272 3.0514 5.71109 3.33331C5.89946 3.61522 6 3.94666 6 4.28571C5.9995 4.74022 5.81873 5.17597 5.49735 5.49735C5.17597 5.81873 4.74022 5.9995 4.28571 6Z" fill="#DA6846"/>
</svg>
