<svg width="12" height="9" viewBox="0 0 12 9" fill="none" xmlns="http://www.w3.org/2000/svg">
<path d="M8.17418 8.15403C7.62845 8.19906 7.03519 8.22486 6.39415 8.23168V6.04024L8.17418 8.15403ZM9.01486 8.06448L6.39415 4.95239V1.92699C6.39415 1.73349 6.23728 1.57663 6.04378 1.57663C5.85028 1.57663 5.69342 1.73349 5.69342 1.92699V4.95239L3.07271 8.06448C2.29581 7.9611 1.63583 7.80996 1.09181 7.61013L0.637418 8.25926C0.526453 8.41778 0.307995 8.45633 0.149474 8.34537C-0.00904743 8.2344 -0.0476009 8.01594 0.063364 7.85742L0.614195 7.07051C0.666664 4.22806 2.70864 1.42889 5.2703 0.948269L4.92013 0.598107C4.78331 0.461282 4.78331 0.239444 4.92013 0.102619C5.05696 -0.0342062 5.2788 -0.0342062 5.41562 0.102619L6.04378 0.730781L6.67195 0.102619C6.80877 -0.0342062 7.03061 -0.0342062 7.16743 0.102619C7.30426 0.239444 7.30426 0.461282 7.16743 0.598107L6.81727 0.948269C9.383 1.42965 11.4274 4.23696 11.4736 7.08406L11.95 7.87808C12.0496 8.044 11.9958 8.25922 11.8298 8.35877C11.6639 8.45833 11.4487 8.40452 11.3491 8.2386L10.9763 7.61723C10.436 7.81355 9.78253 7.96233 9.01486 8.06448ZM3.91339 8.15403L5.69342 6.04024V8.23168C5.05238 8.22486 4.45912 8.19906 3.91339 8.15403Z" fill="#596235"/>
</svg>
